<svg viewBox="0 0 48 48" xmlns="http://www.w3.org/2000/svg">
  <defs>
    <linearGradient id="logoGradient" x1="0%" y1="0%" x2="100%" y2="100%">
      <stop offset="0%" style="stop-color:#8B5A3C;stop-opacity:1" />
      <stop offset="50%" style="stop-color:#A0522D;stop-opacity:1" />
      <stop offset="100%" style="stop-color:#654321;stop-opacity:1" />
    </linearGradient>
  </defs>
  
  <!-- Background circle with gradient -->
  <circle cx="24" cy="24" r="22" fill="url(#logoGradient)" stroke="#fff" stroke-width="2"/>
  
  <!-- Letter 'N' stylized as fox nuts/makhana -->
  <path 
    d="M16 12C14.3431 12 13 13.3431 13 15V33C13 34.6569 14.3431 36 16 36C17.6569 36 19 34.6569 19 33V25.5L30 33.2C31.2 34.2 33 33.3 33 31.7V15C33 13.3431 31.6569 12 30 12C28.3431 12 27 13.3431 27 15V22.5L16 14.8C15.4 14.3 15 14.5 15 15.2V33"
    fill="white"
    stroke="white"
    stroke-width="1"
    stroke-linecap="round"
    stroke-linejoin="round"
  />
  
  <!-- Decorative makhana dots -->
  <circle cx="36" cy="16" r="2" fill="white" opacity="0.8"/>
  <circle cx="37" cy="22" r="1.5" fill="white" opacity="0.6"/>
  <circle cx="35" cy="28" r="1.8" fill="white" opacity="0.7"/>
  <circle cx="36" cy="34" r="1.6" fill="white" opacity="0.9"/>
</svg>